<?xml version="1.0" encoding="utf-8"?>
<!-- Generator: Adobe Illustrator 26.2.1, SVG Export Plug-In . SVG Version: 6.00 Build 0)  -->
<svg version="1.1" id="_x2018_ëîé_x5F_1" xmlns="http://www.w3.org/2000/svg" xmlns:xlink="http://www.w3.org/1999/xlink"
	 x="0px" y="0px" viewBox="0 0 32 32" style="enable-background:new 0 0 32 32;" xml:space="preserve">
<path d="M26.4,22.8c1.6-2.5,2.3-5.5,2-8.4c-0.4-3.3-2.1-6.3-4.7-8.3c-2.6-2.1-5.9-3-9.2-2.5C11.1,4,8.2,5.7,6.1,8.3
	c-2.1,2.6-3,5.9-2.5,9.2c0.4,3.3,2.1,6.3,4.7,8.3c2.2,1.7,4.9,2.6,7.6,2.6c0.5,0,1,0,1.6-0.1c1.3-0.2,2.5-0.5,3.7-1.1l5.6,1.1
	c0.1,0,0.2,0,0.4,0c0.3,0,0.6-0.2,0.8-0.4c0.3-0.3,0.4-0.8,0.2-1.2L26.4,22.8z M24,23.2l1.1,2.6l-3.8-0.8c-0.1,0-0.2,0-0.4,0
	c-0.1,0-0.3,0.1-0.4,0.1c-1.1,0.5-2.2,0.9-3.3,1c-2.7,0.3-5.3-0.4-7.5-2.1c-2.1-1.7-3.5-4.1-3.8-6.7C5.2,11.7,9.2,6.6,14.7,5.9
	c0.4-0.1,0.9-0.1,1.3-0.1c2.2,0,4.4,0.7,6.2,2.1c2.1,1.7,3.5,4.1,3.8,6.7c0.3,2.6-0.4,5.2-1.9,7.3C23.9,22.3,23.9,22.8,24,23.2z"/>
</svg>
