<?xml version="1.0" encoding="utf-8"?>
<!-- Generator: Adobe Illustrator 26.2.1, SVG Export Plug-In . SVG Version: 6.00 Build 0)  -->
<svg version="1.0" id="Camada_1" xmlns="http://www.w3.org/2000/svg" xmlns:xlink="http://www.w3.org/1999/xlink" x="0px" y="0px"
	 viewBox="0 0 907.09 907.09" style="enable-background:new 0 0 907.09 907.09;" xml:space="preserve">
<g>
	<path d="M453.54,81.92c-202.28,0-366.85,154.34-366.85,344.06c0,49.76,11.24,97.76,33.4,142.69
		c20.97,42.52,50.62,80.16,88.12,111.89v103.81c0,11.25,5.76,21.42,15.4,27.21c4.96,2.98,10.61,4.56,16.32,4.56
		c5.16,0,10.33-1.3,14.97-3.77l1.24-0.67l103.62-53.83c32.48,8.18,63.17,12.16,93.78,12.16c202.28,0,366.85-154.34,366.85-344.06
		C820.4,236.26,655.83,81.92,453.54,81.92z M260.99,640.38c-69.23-53.32-108.93-131.46-108.93-214.39
		c0.01-153.67,135.25-278.69,301.48-278.69c166.23,0,301.47,125.02,301.47,278.69S619.77,704.68,453.54,704.68
		c-30.29,0-60.44-4.24-89.64-12.61l-0.87-0.23c-7.73-1.93-15.86-0.9-22.91,2.93l-66.54,34.65v-63.72
		C273.58,655.8,268.87,646.35,260.99,640.38z"/>
	<path d="M325.96,501.53l71.01-39.81l67.96,72.74c5.98,6.4,14.43,10.07,23.19,10.07h0.11c8.8-0.03,17.27-3.76,23.22-10.22
		l109.11-118.3c10.82-11.73,11.46-28.67,1.57-41.19c-9.89-12.52-26.51-15.81-40.43-8.01l-70.1,39.32l-69.97-69.97
		c-6.13-6.13-14.28-9.44-22.9-9.29c-8.65,0.12-16.69,3.66-22.63,9.96L287.35,452.07c-11.02,11.67-11.81,28.67-1.93,41.32
		C295.3,506.04,311.97,509.38,325.96,501.53z"/>
</g>
</svg>
