<?xml version="1.0" encoding="utf-8"?>
<!-- Generator: Adobe Illustrator 26.2.1, SVG Export Plug-In . SVG Version: 6.00 Build 0)  -->
<svg version="1.1" id="_x2018_ëîé_x5F_1" xmlns="http://www.w3.org/2000/svg" xmlns:xlink="http://www.w3.org/1999/xlink"
	 x="0px" y="0px" viewBox="0 0 32 32" style="enable-background:new 0 0 32 32;" xml:space="preserve">
<path d="M30,4.1c-0.2-0.4-0.6-0.6-1.1-0.6c0,0,0,0,0,0L3,3.6c-0.5,0-0.9,0.3-1.1,0.8c-0.2,0.5-0.1,1,0.3,1.3l8.6,8.6
	c0,0,0,0.1,0.1,0.1l4.1,13.2c0.1,0.5,0.5,0.8,1,0.9c0,0,0.1,0,0.1,0c0.4,0,0.8-0.2,1.1-0.6L30.1,5.3C30.3,5,30.3,4.5,30,4.1z M24,6
	l-11.8,6.2L6,6L24,6z M25.8,7.8l-9.4,16.4l-3-9.9L25.8,7.8z"/>
</svg>
