<?xml version="1.0" encoding="utf-8"?>
<!-- Generator: Adobe Illustrator 26.2.1, SVG Export Plug-In . SVG Version: 6.00 Build 0)  -->
<svg version="1.0" id="Camada_1" xmlns="http://www.w3.org/2000/svg" xmlns:xlink="http://www.w3.org/1999/xlink" x="0px" y="0px"
	 viewBox="0 0 32 32" style="enable-background:new 0 0 32 32;" xml:space="preserve">
<g>
	<g>
		<path d="M16.06,28.5h-0.12C9.08,28.5,3.5,22.92,3.5,16.06C3.5,9.08,9.08,3.5,15.94,3.5c6.98,0,12.56,5.58,12.56,12.44
			C28.5,22.92,22.92,28.5,16.06,28.5z M16.06,5.56c-5.84,0-10.49,4.66-10.49,10.38c0,5.84,4.65,10.49,10.38,10.49h0.12
			c5.72,0,10.38-4.66,10.38-10.38C26.44,10.22,21.78,5.56,16.06,5.56z"/>
	</g>
	<path d="M21.54,10.43c-0.3-0.28-0.73-0.37-1.1-0.21l-6.56,2.66c-0.25,0.1-0.45,0.29-0.56,0.54l-3.09,7
		c-0.17,0.38-0.09,0.82,0.19,1.12c0.2,0.21,0.47,0.33,0.75,0.33c0.12,0,0.24-0.02,0.36-0.06l7.15-2.62
		c0.29-0.11,0.51-0.33,0.62-0.62l2.51-7.03C21.94,11.14,21.84,10.71,21.54,10.43z M17.51,17.4c-0.82-0.92-1.65-1.85-2.47-2.77
		l4.04-1.63L17.51,17.4z"/>
</g>
</svg>
