<?xml version="1.0" encoding="utf-8"?>
<!-- Generator: Adobe Illustrator 26.2.1, SVG Export Plug-In . SVG Version: 6.00 Build 0)  -->
<svg version="1.1" id="_x2018_ëîé_x5F_1" xmlns="http://www.w3.org/2000/svg" xmlns:xlink="http://www.w3.org/1999/xlink"
	 x="0px" y="0px" viewBox="0 0 32 32" style="enable-background:new 0 0 32 32;" xml:space="preserve">
<path d="M30.4,8.4c-1-3.4-4.1-5.7-7.6-5.7c-1.8,0-3.5,0.6-5,1.8C17.1,5,16.5,5.6,16,6.1c-0.5-0.5-1.1-1.1-1.9-1.7
	C12.7,3.3,11,2.7,9.2,2.7C5.8,2.7,2.6,5,1.6,8.3C-1.4,18.2,15.2,29,15.4,29.1c0.2,0.1,0.4,0.2,0.6,0.2c0.2,0,0.4-0.1,0.6-0.2
	C18.4,28,33.3,17.8,30.4,8.4z M16,26.7C13,24.6,1.7,16.1,3.9,9.1c0.7-2.4,2.9-4,5.3-4c1.3,0,2.4,0.4,3.4,1.2
	c0.5,0.4,1.9,1.8,2.2,2.2C15,8.9,15.5,9.2,16,9.2c0.5,0,1-0.3,1.1-0.8c0.3-0.4,1.7-1.8,2.2-2.1c1-0.8,2.2-1.2,3.4-1.2
	c2.4,0,4.6,1.6,5.3,3.9l0,0.1C30.3,16.2,18.4,25,16,26.7z"/>
</svg>
