<?xml version="1.0" encoding="utf-8"?>
<!-- Generator: Adobe Illustrator 26.2.1, SVG Export Plug-In . SVG Version: 6.00 Build 0)  -->
<svg version="1.0" id="_x2018_ëîé_x5F_1" xmlns="http://www.w3.org/2000/svg" xmlns:xlink="http://www.w3.org/1999/xlink"
	 x="0px" y="0px" viewBox="0 0 32 32" style="enable-background:new 0 0 32 32;" xml:space="preserve">
<g>
	<path d="M21.02,28.88H10.98c-4.34,0-7.86-3.53-7.86-7.86V10.98c0-4.34,3.53-7.86,7.86-7.86h10.04c4.33,0,7.86,3.53,7.86,7.86v10.04
		C28.88,25.35,25.35,28.88,21.02,28.88z M10.98,5.12c-3.23,0-5.86,2.63-5.86,5.86v10.04c0,3.23,2.63,5.86,5.86,5.86h10.04
		c3.23,0,5.86-2.63,5.86-5.86V10.98c0-3.23-2.63-5.86-5.86-5.86H10.98z"/>
</g>
<path d="M22.81,15H17V9.19c0-0.55-0.45-1-1-1s-1,0.45-1,1V15H9.19c-0.55,0-1,0.45-1,1s0.45,1,1,1H15v5.81c0,0.55,0.45,1,1,1
	s1-0.45,1-1V17h5.81c0.55,0,1-0.45,1-1S23.36,15,22.81,15z"/>
</svg>
