<?xml version="1.0" encoding="utf-8"?>
<!-- Generator: Adobe Illustrator 26.2.1, SVG Export Plug-In . SVG Version: 6.00 Build 0)  -->
<svg version="1.1" id="_x2018_ëîé_x5F_1" xmlns="http://www.w3.org/2000/svg" xmlns:xlink="http://www.w3.org/1999/xlink"
	 x="0px" y="0px" viewBox="0 0 32 32" style="enable-background:new 0 0 32 32;" xml:space="preserve">
<g>
	<g>
		<path d="M25.7,28.5c-0.2,0-0.5,0-0.6-0.1c-0.2-0.1-0.4-0.1-0.6-0.3c-0.1,0-0.1-0.1-0.2-0.1l-8.4-7.6L7.6,28c0,0-0.1,0.1-0.2,0.1
			c-0.6,0.4-1.3,0.4-2,0.2c-0.7-0.3-1.2-1-1.2-1.7V5.4c0-1.1,0.9-1.9,2-1.9h19.5c1.1,0,2,0.9,2,1.9v21.2c0,0.2-0.1,0.4-0.2,0.6
			C27.1,28,26.4,28.5,25.7,28.5C25.7,28.5,25.7,28.5,25.7,28.5z M25.7,27.2L25.7,27.2L25.7,27.2z M6.8,6v19.3l8.5-7.5
			c0.5-0.4,1.2-0.4,1.7,0l8.3,7.5V6H6.8z"/>
	</g>
</g>
</svg>
